HIERARCHY
ROOT root
{
	OFFSET 0.000000 0.000000 0.000000
	CHANNELS 6 Xposition Yposition Zposition Zrotation Yrotation Xrotation
	JOINT lhip
	{
		OFFSET 0.058581 -0.082280 -0.017664
		CHANNELS 3 Zrotation Yrotation Xrotation
		JOINT lknee
		{
			OFFSET 0.043451 -0.386469 0.008037
			CHANNELS 3 Zrotation Yrotation Xrotation
			JOINT lankle
			{
				OFFSET -0.014790 -0.426874 -0.037428
				CHANNELS 3 Zrotation Yrotation Xrotation
				JOINT ltoe
				{
					OFFSET 0.041054 -0.060286 0.122042
					CHANNELS 3 Zrotation Yrotation Xrotation
					End Site
					{
						OFFSET 0.000000 0.000000 0.000000
					}
				}
			}
		}
	}
	JOINT rhip
	{
		OFFSET -0.060310 -0.090513 -0.013543
		CHANNELS 3 Zrotation Yrotation Xrotation
		JOINT rknee
		{
			OFFSET -0.043257 -0.383688 -0.004843
			CHANNELS 3 Zrotation Yrotation Xrotation
			JOINT rankle
			{
				OFFSET 0.019056 -0.420046 -0.034562
				CHANNELS 3 Zrotation Yrotation Xrotation
				JOINT rtoe
				{
					OFFSET -0.034840 -0.062106 0.130323
					CHANNELS 3 Zrotation Yrotation Xrotation
					End Site
					{
						OFFSET 0.000000 0.000000 0.000000
					}
				}
			}
		}
	}
	JOINT lowerback
	{
		OFFSET 0.004439 0.124404 -0.038385
		CHANNELS 3 Zrotation Yrotation Xrotation
		JOINT upperback
		{
			OFFSET 0.004488 0.137956 0.026820
			CHANNELS 3 Zrotation Yrotation Xrotation
			JOINT chest
			{
				OFFSET -0.002265 0.056032 0.002855
				CHANNELS 3 Zrotation Yrotation Xrotation
				JOINT lowerneck
				{
					OFFSET -0.013390 0.211636 -0.033468
					CHANNELS 3 Zrotation Yrotation Xrotation
					JOINT upperneck
					{
						OFFSET 0.010113 0.088937 0.050410
						CHANNELS 3 Zrotation Yrotation Xrotation
						End Site
						{
							OFFSET 0.000000 0.000000 0.000000
						}
					}
				}
				JOINT lclavicle
				{
					OFFSET 0.071702 0.114000 -0.018898
					CHANNELS 3 Zrotation Yrotation Xrotation
					JOINT lshoulder
					{
						OFFSET 0.122921 0.045205 -0.019046
						CHANNELS 3 Zrotation Yrotation Xrotation
						JOINT lelbow
						{
							OFFSET 0.255332 -0.015649 -0.022946
							CHANNELS 3 Zrotation Yrotation Xrotation
							JOINT lwrist
							{
								OFFSET 0.265709 0.012698 -0.007375
								CHANNELS 3 Zrotation Yrotation Xrotation
								End Site
								{
									OFFSET 0.000000 0.000000 0.000000
								}
							}
						}
					}
				}
				JOINT rclavicle
				{
					OFFSET -0.082954 0.112472 -0.023707
					CHANNELS 3 Zrotation Yrotation Xrotation
					JOINT rshoulder
					{
						OFFSET -0.113228 0.046853 -0.008472
						CHANNELS 3 Zrotation Yrotation Xrotation
						JOINT relbow
						{
							OFFSET -0.260127 -0.014369 -0.031269
							CHANNELS 3 Zrotation Yrotation Xrotation
							JOINT rwrist
							{
								OFFSET -0.269108 0.006794 -0.006027
								CHANNELS 3 Zrotation Yrotation Xrotation
								End Site
								{
									OFFSET 0.000000 0.000000 0.000000
								}
							}
						}
					}
				}
			}
		}
	}
}
MOTION
Frames: 5
Frame Time: 0.033333
0.161893 0.178255 0.893663 89.036866 -0.022656 83.860252 8.737133 5.822097 -15.800053 -4.751959 0.539995 49.152015 4.200047 6.956041 -26.483688 0.000000 -0.000000 0.000000 -8.571208 -2.933058 -19.023659 -0.477101 -2.542669 54.172817 2.273619 -5.165084 -27.426495 0.000000 -0.000000 0.000000 -3.547736 2.095644 6.779020 2.614250 -2.894065 1.593236 -0.058647 3.105612 0.089373 6.389613 3.433461 2.025104 1.713697 -8.023601 5.621921 0.997316 -29.512464 -17.280094 -28.071613 -47.488394 -0.015818 12.442031 -28.300618 1.731714 -32.996593 -13.982952 2.674355 0.457761 28.518769 -11.882116 24.187821 44.725974 -4.507044 -24.689048 31.409987 -5.518342 42.464924 2.746929 -7.766944 
0.161201 0.177876 0.893935 89.128448 -0.056970 83.768016 8.644452 5.721354 -15.687556 -4.758944 0.552010 49.168344 4.274938 7.043280 -26.610574 0.000000 -0.000000 0.000000 -8.617246 -2.930024 -19.012397 -0.348675 -2.537719 54.178999 2.155539 -5.276434 -27.401015 0.000000 -0.000000 0.000000 -3.597919 2.161238 6.951707 2.593072 -2.936064 1.522816 -0.026414 3.047965 -0.017460 6.380803 3.422095 1.943533 1.801411 -7.948603 5.816088 0.933726 -30.084110 -17.263775 -27.383388 -47.081040 -0.602594 11.991680 -28.129916 1.348090 -32.614370 -13.837370 2.888501 0.375763 28.823126 -11.707585 23.931885 44.481007 -4.875372 -24.621946 31.367389 -6.027465 41.881592 2.591839 -7.417449 
0.160746 0.177462 0.894137 89.231007 -0.059129 83.648824 8.557776 5.701370 -15.524582 -4.753118 0.449088 49.134208 4.346030 7.091038 -26.687468 0.000000 -0.000000 0.000000 -8.635247 -2.953272 -18.915643 -0.252462 -2.533481 54.150482 2.074720 -5.347923 -27.392361 0.000000 -0.000000 0.000000 -3.619807 2.171790 7.165722 2.574867 -2.979276 1.415592 0.016056 3.031272 -0.081665 6.375066 3.389326 1.938491 1.908957 -7.871052 5.887137 0.932365 -30.490654 -17.283402 -26.908950 -46.768608 -1.017860 11.627497 -27.996599 1.189160 -32.283171 -13.746709 3.085573 0.241765 29.029504 -11.647500 23.853513 44.265543 -5.098627 -24.552049 31.385361 -6.392459 41.297760 2.604137 -7.159175 
0.160402 0.177218 0.894061 89.297275 -0.078478 83.548864 8.529667 5.613200 -15.393351 -4.783811 0.438370 49.109429 4.441523 7.215433 -26.629861 0.000000 -0.000000 0.000000 -8.632084 -2.918254 -18.857323 -0.179308 -2.492149 54.215076 2.016663 -5.502493 -27.389550 0.000000 -0.000000 0.000000 -3.541708 2.204735 7.348102 2.545631 -3.025937 1.490248 -0.052990 3.121548 -0.278129 6.211691 3.299125 1.927085 2.019814 -7.932951 5.968656 0.886043 -30.914114 -17.279533 -26.609732 -46.394259 -1.156821 11.471719 -27.944620 0.710609 -32.318999 -13.538919 3.272000 -0.184579 29.386412 -11.558819 24.388704 43.588094 -4.627024 -25.581751 31.669201 -7.378333 41.214506 2.411153 -7.134460 
0.160261 0.177121 0.894026 89.318255 -0.066016 83.552411 8.529313 5.605040 -15.384206 -4.787432 0.419167 49.106264 4.439473 7.219716 -26.642130 0.000000 -0.000000 0.000000 -8.620579 -2.927612 -18.890296 -0.174742 -2.496053 54.247992 2.014182 -5.508217 -27.394101 0.000000 -0.000000 0.000000 -3.569412 2.208381 7.331136 2.566263 -3.026103 1.497598 -0.015521 3.087695 -0.280239 6.225395 3.310354 1.878761 1.988637 -7.932602 6.038869 0.831164 -30.937718 -17.264127 -26.578768 -46.384495 -1.231169 11.442987 -27.874138 0.740205 -32.578372 -13.420714 3.322122 -0.126207 29.373340 -11.533129 24.188588 43.606123 -4.668800 -25.367372 31.775836 -7.117121 41.538422 2.400071 -7.292964 
